<mxfile host="app.diagrams.net" modified="2024-06-23T02:20:23.347Z" agent="Mozilla/5.0 (Windows NT 10.0; Win64; x64) AppleWebKit/537.36 (KHTML, like Gecko) Chrome/126.0.0.0 Safari/537.36 Edg/126.0.0.0" etag="o27riHX_rAZOe0xrVxAH" version="24.6.2" type="google">
  <diagram name="Page-1" id="UHkXcnCmw9-Nop23rr-n">
    <mxGraphModel dx="2026" dy="1193" grid="0" gridSize="10" guides="1" tooltips="1" connect="1" arrows="1" fold="1" page="1" pageScale="1" pageWidth="850" pageHeight="1100" math="0" shadow="0">
      <root>
        <mxCell id="0" />
        <mxCell id="1" parent="0" />
        <mxCell id="ym8xDnI4zUhROqJ30JRd-1" value="" style="rounded=0;whiteSpace=wrap;html=1;" parent="1" vertex="1">
          <mxGeometry x="100" y="150" width="600" height="360" as="geometry" />
        </mxCell>
        <mxCell id="ym8xDnI4zUhROqJ30JRd-3" value="&lt;h1&gt;LockSmithy&lt;/h1&gt;" style="text;html=1;strokeColor=none;fillColor=none;spacing=5;spacingTop=-20;whiteSpace=wrap;overflow=hidden;rounded=0;" parent="1" vertex="1">
          <mxGeometry x="120" y="170" width="395" height="40" as="geometry" />
        </mxCell>
        <mxCell id="ym8xDnI4zUhROqJ30JRd-5" value="&lt;h1&gt;&lt;span style=&quot;background-color: initial; font-size: 12px; font-weight: normal;&quot;&gt;&lt;i&gt;Forging strong passwords since 2023.&lt;/i&gt;&lt;/span&gt;&lt;br&gt;&lt;/h1&gt;" style="text;html=1;strokeColor=none;fillColor=none;spacing=5;spacingTop=-20;whiteSpace=wrap;overflow=hidden;rounded=0;" parent="1" vertex="1">
          <mxGeometry x="120" y="190" width="395" height="40" as="geometry" />
        </mxCell>
        <mxCell id="ym8xDnI4zUhROqJ30JRd-10" value="!HSC!KEK" style="strokeWidth=1;shadow=1;dashed=0;align=center;html=1;shape=mxgraph.mockup.text.textBox;fontColor=#666666;align=left;fontSize=17;spacingLeft=4;spacingTop=-3;whiteSpace=wrap;strokeColor=#666666;mainText=" parent="1" vertex="1">
          <mxGeometry x="368" y="304" width="270" height="30" as="geometry" />
        </mxCell>
        <mxCell id="ym8xDnI4zUhROqJ30JRd-12" value="" style="verticalLabelPosition=bottom;shadow=0;dashed=0;align=center;html=1;verticalAlign=top;strokeWidth=1;shape=mxgraph.mockup.forms.horSlider;strokeColor=#999999;sliderStyle=basic;sliderPos=22.108;handleStyle=circle;fillColor2=#ddeeff;" parent="1" vertex="1">
          <mxGeometry x="310" y="251" width="340" height="30" as="geometry" />
        </mxCell>
        <mxCell id="ym8xDnI4zUhROqJ30JRd-13" value="&lt;h1&gt;&lt;span style=&quot;background-color: initial; font-size: 12px; font-weight: normal;&quot;&gt;Number of characters:&lt;/span&gt;&lt;br&gt;&lt;/h1&gt;" style="text;html=1;strokeColor=none;fillColor=none;spacing=5;spacingTop=-20;whiteSpace=wrap;overflow=hidden;rounded=0;" parent="1" vertex="1">
          <mxGeometry x="120" y="241" width="130" height="40" as="geometry" />
        </mxCell>
        <mxCell id="ym8xDnI4zUhROqJ30JRd-15" value="&lt;h1&gt;&lt;br&gt;&lt;/h1&gt;" style="text;html=1;strokeColor=none;fillColor=none;spacing=5;spacingTop=-20;whiteSpace=wrap;overflow=hidden;rounded=0;" parent="1" vertex="1">
          <mxGeometry x="120" y="270" width="130" height="40" as="geometry" />
        </mxCell>
        <mxCell id="ym8xDnI4zUhROqJ30JRd-83" value="&lt;div style=&quot;&quot;&gt;&lt;span style=&quot;font-size: 12px; background-color: initial;&quot;&gt;8&lt;/span&gt;&lt;/div&gt;" style="strokeWidth=1;shadow=1;dashed=0;align=center;html=1;shape=mxgraph.mockup.text.textBox;fontColor=#666666;align=left;fontSize=17;spacingLeft=4;spacingTop=-3;whiteSpace=wrap;strokeColor=#666666;mainText=" parent="1" vertex="1">
          <mxGeometry x="270" y="251" width="30" height="30" as="geometry" />
        </mxCell>
        <mxCell id="ym8xDnI4zUhROqJ30JRd-99" value="&lt;font style=&quot;font-size: 14px;&quot;&gt;📋&lt;/font&gt;" style="rounded=1;html=1;shadow=1;dashed=0;whiteSpace=wrap;fontSize=10;fillColor=#FFFFFF;align=center;strokeColor=#666666;fontColor=#333333;" parent="1" vertex="1">
          <mxGeometry x="590" y="440" width="30" height="30" as="geometry" />
        </mxCell>
        <mxCell id="ym8xDnI4zUhROqJ30JRd-101" value="&lt;font style=&quot;font-size: 14px;&quot;&gt;🔁&lt;/font&gt;" style="rounded=1;html=1;shadow=1;dashed=0;whiteSpace=wrap;fontSize=10;fillColor=#FFFFFF;align=center;strokeColor=#666666;fontColor=#333333;" parent="1" vertex="1">
          <mxGeometry x="540" y="440" width="30" height="30" as="geometry" />
        </mxCell>
        <mxCell id="ym8xDnI4zUhROqJ30JRd-104" value="&lt;h1 style=&quot;text-align: right;&quot;&gt;&lt;span style=&quot;background-color: initial; font-size: 12px; font-weight: normal;&quot;&gt;Your Password:&lt;/span&gt;&lt;br&gt;&lt;/h1&gt;" style="text;html=1;strokeColor=none;fillColor=none;spacing=5;spacingTop=-20;whiteSpace=wrap;overflow=hidden;rounded=0;" parent="1" vertex="1">
          <mxGeometry x="125" y="430" width="100" height="40" as="geometry" />
        </mxCell>
        <mxCell id="ym8xDnI4zUhROqJ30JRd-127" style="edgeStyle=orthogonalEdgeStyle;rounded=0;orthogonalLoop=1;jettySize=auto;html=1;exitX=1;exitY=0.5;exitDx=0;exitDy=0;entryX=0;entryY=0.25;entryDx=0;entryDy=0;curved=1;" parent="1" source="ym8xDnI4zUhROqJ30JRd-109" target="ym8xDnI4zUhROqJ30JRd-110" edge="1">
          <mxGeometry relative="1" as="geometry" />
        </mxCell>
        <mxCell id="ym8xDnI4zUhROqJ30JRd-109" value="&lt;font style=&quot;font-size: 14px;&quot;&gt;❓&lt;/font&gt;" style="rounded=1;html=1;shadow=1;dashed=0;whiteSpace=wrap;fontSize=10;fillColor=#FFFFFF;align=center;strokeColor=#666666;fontColor=#333333;" parent="1" vertex="1">
          <mxGeometry x="640" y="440" width="30" height="30" as="geometry" />
        </mxCell>
        <mxCell id="ym8xDnI4zUhROqJ30JRd-110" value="" style="rounded=0;whiteSpace=wrap;html=1;" parent="1" vertex="1">
          <mxGeometry x="770" y="416" width="440" height="304" as="geometry" />
        </mxCell>
        <mxCell id="ym8xDnI4zUhROqJ30JRd-111" value="&lt;h1&gt;Help&lt;/h1&gt;" style="text;html=1;strokeColor=none;fillColor=none;spacing=5;spacingTop=-20;whiteSpace=wrap;overflow=hidden;rounded=0;" parent="1" vertex="1">
          <mxGeometry x="782.5" y="456" width="395" height="40" as="geometry" />
        </mxCell>
        <mxCell id="ym8xDnI4zUhROqJ30JRd-113" value="" style="rounded=0;whiteSpace=wrap;html=1;" parent="1" vertex="1">
          <mxGeometry x="100" y="120" width="600" height="30" as="geometry" />
        </mxCell>
        <mxCell id="ym8xDnI4zUhROqJ30JRd-114" value="&lt;font style=&quot;font-size: 14px;&quot;&gt;X&lt;/font&gt;" style="rounded=0;whiteSpace=wrap;html=1;" parent="1" vertex="1">
          <mxGeometry x="660" y="120" width="40" height="30" as="geometry" />
        </mxCell>
        <mxCell id="ym8xDnI4zUhROqJ30JRd-117" value="" style="rounded=0;whiteSpace=wrap;html=1;" parent="1" vertex="1">
          <mxGeometry x="770" y="416" width="415" height="30" as="geometry" />
        </mxCell>
        <mxCell id="ym8xDnI4zUhROqJ30JRd-120" value="X" style="rounded=0;whiteSpace=wrap;html=1;" parent="1" vertex="1">
          <mxGeometry x="1175" y="416" width="35" height="30" as="geometry" />
        </mxCell>
        <mxCell id="ym8xDnI4zUhROqJ30JRd-85" value="&lt;h1&gt;&lt;span style=&quot;background-color: initial; font-size: 12px; font-weight: normal;&quot;&gt;Uppercase&lt;/span&gt;&lt;br&gt;&lt;/h1&gt;" style="text;html=1;strokeColor=none;fillColor=none;spacing=5;spacingTop=-20;whiteSpace=wrap;overflow=hidden;rounded=0;" parent="1" vertex="1">
          <mxGeometry x="145" y="288" width="130" height="40" as="geometry" />
        </mxCell>
        <mxCell id="ym8xDnI4zUhROqJ30JRd-86" value="&lt;h1&gt;&lt;span style=&quot;background-color: initial; font-size: 12px; font-weight: normal;&quot;&gt;Lowercase&lt;/span&gt;&lt;br&gt;&lt;/h1&gt;" style="text;html=1;strokeColor=none;fillColor=none;spacing=5;spacingTop=-20;whiteSpace=wrap;overflow=hidden;rounded=0;" parent="1" vertex="1">
          <mxGeometry x="145" y="318" width="130" height="40" as="geometry" />
        </mxCell>
        <mxCell id="ym8xDnI4zUhROqJ30JRd-87" value="&lt;h1&gt;&lt;span style=&quot;background-color: initial; font-size: 12px; font-weight: normal;&quot;&gt;Numbers&lt;/span&gt;&lt;br&gt;&lt;/h1&gt;" style="text;html=1;strokeColor=none;fillColor=none;spacing=5;spacingTop=-20;whiteSpace=wrap;overflow=hidden;rounded=0;" parent="1" vertex="1">
          <mxGeometry x="145" y="348" width="130" height="40" as="geometry" />
        </mxCell>
        <mxCell id="ym8xDnI4zUhROqJ30JRd-88" value="&lt;h1&gt;&lt;span style=&quot;background-color: initial; font-size: 12px; font-weight: normal;&quot;&gt;Symbols&lt;/span&gt;&lt;br&gt;&lt;/h1&gt;" style="text;html=1;strokeColor=none;fillColor=none;spacing=5;spacingTop=-20;whiteSpace=wrap;overflow=hidden;rounded=0;" parent="1" vertex="1">
          <mxGeometry x="145" y="376" width="130" height="40" as="geometry" />
        </mxCell>
        <mxCell id="ym8xDnI4zUhROqJ30JRd-93" value="" style="dashed=0;labelPosition=right;align=left;shape=mxgraph.gmdl.checkbox;strokeColor=#B0B0B0;fillColor=none;strokeWidth=2;aspect=fixed;sketch=0;html=1;" parent="1" vertex="1">
          <mxGeometry x="125" y="334" width="16" height="16" as="geometry" />
        </mxCell>
        <mxCell id="ym8xDnI4zUhROqJ30JRd-94" value="" style="dashed=0;labelPosition=right;align=left;shape=mxgraph.gmdl.checkbox;strokeColor=#B0B0B0;fillColor=none;strokeWidth=2;aspect=fixed;sketch=0;html=1;" parent="1" vertex="1">
          <mxGeometry x="125" y="364" width="16" height="16" as="geometry" />
        </mxCell>
        <mxCell id="ym8xDnI4zUhROqJ30JRd-96" value="" style="dashed=0;labelPosition=right;align=left;shape=mxgraph.gmdl.checkbox;strokeColor=none;fillColor=#B0B0B0;strokeWidth=2;aspect=fixed;sketch=0;html=1;" parent="1" vertex="1">
          <mxGeometry x="125" y="304" width="16" height="16" as="geometry" />
        </mxCell>
        <mxCell id="ym8xDnI4zUhROqJ30JRd-97" value="" style="dashed=0;labelPosition=right;align=left;shape=mxgraph.gmdl.checkbox;strokeColor=none;fillColor=#B0B0B0;strokeWidth=2;aspect=fixed;sketch=0;html=1;" parent="1" vertex="1">
          <mxGeometry x="125" y="392" width="16" height="16" as="geometry" />
        </mxCell>
        <mxCell id="ym8xDnI4zUhROqJ30JRd-124" value="LockSmithy was developed by &lt;u&gt;Andrew Fong&lt;/u&gt; and it has been released using a &lt;u&gt;GNU General Public License&lt;/u&gt;. It currently supports the following features:&lt;br&gt;&lt;br&gt;&lt;b&gt;Password Length&lt;/b&gt;: Longer equals stronger. Choose wisely.&lt;br&gt;&lt;br&gt;&lt;b&gt;Password Complexity&lt;/b&gt;: Mix it up: Use letters, numbers, and symbols.&lt;br&gt;&lt;br&gt;&lt;b&gt;Save to Clipboard&lt;/b&gt;: Copy your password here. It auto-clears in 2 minutes." style="text;html=1;strokeColor=none;fillColor=none;spacing=5;spacingTop=-20;whiteSpace=wrap;overflow=hidden;rounded=0;" parent="1" vertex="1">
          <mxGeometry x="782.5" y="515" width="390" height="150" as="geometry" />
        </mxCell>
        <mxCell id="ym8xDnI4zUhROqJ30JRd-130" value="&lt;font style=&quot;font-size: 14px;&quot;&gt;Close&lt;/font&gt;" style="rounded=1;html=1;shadow=1;dashed=0;whiteSpace=wrap;fontSize=10;fillColor=#FFFFFF;align=center;strokeColor=#666666;fontColor=#333333;" parent="1" vertex="1">
          <mxGeometry x="1115" y="665" width="70" height="30" as="geometry" />
        </mxCell>
        <mxCell id="ym8xDnI4zUhROqJ30JRd-131" style="edgeStyle=orthogonalEdgeStyle;rounded=0;orthogonalLoop=1;jettySize=auto;html=1;exitX=0;exitY=0.5;exitDx=0;exitDy=0;entryX=0.905;entryY=1.002;entryDx=0;entryDy=0;entryPerimeter=0;curved=1;" parent="1" source="ym8xDnI4zUhROqJ30JRd-130" target="ym8xDnI4zUhROqJ30JRd-1" edge="1">
          <mxGeometry relative="1" as="geometry">
            <Array as="points">
              <mxPoint x="1115" y="690" />
              <mxPoint x="643" y="690" />
            </Array>
          </mxGeometry>
        </mxCell>
      </root>
    </mxGraphModel>
  </diagram>
</mxfile>
